<?xml version="1.0" encoding="UTF-8"?>
<svg id="Layer_1" data-name="Layer 1" xmlns="http://www.w3.org/2000/svg" xmlns:xlink="http://www.w3.org/1999/xlink"
     viewBox="0 0 16 16">
    <defs>
        <style>
            .cls-1 {
            fill: url(#linear-gradient);
            }

            .cls-2 {
            fill: #a2a2a2;
            }
        </style>
        <linearGradient id="linear-gradient" x1="4.8" y1="8.92" x2="11.35" y2="8.92" gradientUnits="userSpaceOnUse">
            <stop offset="0" stop-color="#ff4715"/>
            <stop offset="1" stop-color="#f70"/>
        </linearGradient>
    </defs>
    <path class="cls-2"
          d="M12.06,4.37v9.01H3.94V4.37h8.12M12.56,3.35H3.44c-.29,0-.53.24-.53.53v10c0,.29.24.53.53.53h9.12c.29,0,.53-.24.53-.53V3.88c0-.29-.24-.53-.53-.53h0Z"/>
    <polygon class="cls-2"
             points="9.44 2.53 9.44 1.59 6.66 1.59 6.66 2.53 5.71 2.53 5.71 5.32 10.44 5.32 10.44 2.53 9.44 2.53"/>
    <polygon class="cls-1"
             points="10.44 5.32 10.44 6.15 5.71 6.15 5.71 5.32 4.8 5.32 4.8 6.15 4.8 6.37 4.8 12.52 11.35 12.52 11.35 6.37 11.35 6.15 11.35 5.32 10.44 5.32"/>
</svg>
