<?xml version="1.0" encoding="UTF-8"?>
<svg id="Layer_1" data-name="Layer 1" xmlns="http://www.w3.org/2000/svg" xmlns:xlink="http://www.w3.org/1999/xlink"
     viewBox="0 0 16 16">
    <defs>
        <style>
            .cls-1 {
            fill: url(#linear-gradient-2);
            }

            .cls-2 {
            fill: url(#linear-gradient);
            }

            .cls-3 {
            fill: #a2a2a2;
            }
        </style>
        <linearGradient id="linear-gradient" x1="6.51" y1="6.64" x2="9.57" y2="6.64" gradientUnits="userSpaceOnUse">
            <stop offset="0" stop-color="#ff4715"/>
            <stop offset="1" stop-color="#f70"/>
        </linearGradient>
        <linearGradient id="linear-gradient-2" x1="3.58" y1="9.43" x2="12.42" y2="9.43" xlink:href="#linear-gradient"/>
    </defs>
    <path class="cls-3"
          d="M10.43,4.47h-1.12v-.91h-2.55v.91h-1.12v-1.46c0-.31.25-.56.56-.56h3.66c.31,0,.56.25.56.56v1.46Z"/>
    <path class="cls-3"
          d="M13.31,5.21v7.23H2.69v-7.23h10.63M13.31,4.09H2.69c-.62,0-1.12.5-1.12,1.12v7.23c0,.62.5,1.12,1.12,1.12h10.63c.62,0,1.12-.5,1.12-1.12v-7.23c0-.62-.5-1.12-1.12-1.12h0Z"/>
    <path class="cls-3"
          d="M8.11,9.38c-.11,0-.22-.03-.32-.1L1.9,5.21l.63-.92,5.57,3.84,5.23-3.83.66.9-5.55,4.07c-.1.07-.21.11-.33.11Z"/>
    <polygon class="cls-2" points="9.57 6.1 6.51 6.1 8.09 7.18 9.57 6.1"/>
    <polygon class="cls-1" points="8.13 10.46 3.58 7.32 3.58 11.54 12.42 11.54 12.42 7.32 8.13 10.46"/>
</svg>
