<?xml version="1.0" encoding="UTF-8"?>
<svg id="Layer_1" data-name="Layer 1" xmlns="http://www.w3.org/2000/svg" xmlns:xlink="http://www.w3.org/1999/xlink"
     viewBox="0 0 16 16">
    <defs>
        <style>
            .cls-1 {
            fill: url(#linear-gradient-2);
            }

            .cls-2 {
            fill: url(#linear-gradient-3);
            }

            .cls-3 {
            fill: url(#linear-gradient);
            }

            .cls-4 {
            fill: #a2a2a2;
            }
        </style>
        <linearGradient id="linear-gradient" x1="2.85" y1="9.65" x2="5.74" y2="9.65" gradientUnits="userSpaceOnUse">
            <stop offset="0" stop-color="#ff4715"/>
            <stop offset="1" stop-color="#f70"/>
        </linearGradient>
        <linearGradient id="linear-gradient-2" x1="3.96" y1="5.29" x2="7.69" y2="5.29" xlink:href="#linear-gradient"/>
        <linearGradient id="linear-gradient-3" x1="6.43" y1="9.06" x2="12.76" y2="9.06" xlink:href="#linear-gradient"/>
    </defs>
    <path class="cls-3"
          d="M5.35,7.88c-.19-.07-.4-.11-.62-.11-1.04,0-1.88.84-1.88,1.88s.84,1.88,1.88,1.88c.37,0,.71-.11,1-.29-.36-.62-.57-1.34-.57-2.11,0-.43.07-.85.19-1.25ZM5.01,10.63h-.54v-1.92h.54v1.92Z"/>
    <path class="cls-1"
          d="M7.69,5.07c-.12-.92-.9-1.64-1.85-1.64-1.03,0-1.87.84-1.87,1.87,0,.96.73,1.74,1.66,1.85.42-.92,1.15-1.66,2.06-2.08ZM6.11,6.28h-.54v-1.91h.54v1.91Z"/>
    <path class="cls-4"
          d="M9.6,4.26c-.26,0-.52.04-.77.08-.41-1.29-1.61-2.19-2.99-2.19-1.74,0-3.15,1.41-3.15,3.15,0,.6.17,1.16.47,1.64-.95.56-1.55,1.59-1.55,2.71,0,1.74,1.41,3.15,3.15,3.15.51,0,1-.13,1.45-.36.87.87,2.07,1.41,3.39,1.41,2.64,0,4.79-2.15,4.79-4.79s-2.15-4.79-4.79-4.79ZM5.09,7.49c-.93-.31-1.57-1.18-1.57-2.19,0-1.28,1.04-2.32,2.32-2.32,1,0,1.87.64,2.19,1.57-1.37.48-2.46,1.56-2.94,2.94ZM4.88,8.28c-.04.25-.08.51-.08.77,0,1.01.31,1.94.84,2.71-.28.12-.58.21-.89.21-1.28,0-2.32-1.04-2.32-2.32,0-.87.51-1.65,1.27-2.04.33.3.73.53,1.17.68ZM13.56,9.06c0,2.19-1.78,3.97-3.97,3.97s-3.97-1.78-3.97-3.97,1.78-3.97,3.97-3.97,3.97,1.78,3.97,3.97Z"/>
    <path class="cls-2"
          d="M9.6,5.89c-1.75,0-3.17,1.42-3.17,3.17s1.42,3.17,3.17,3.17,3.17-1.42,3.17-3.17-1.42-3.17-3.17-3.17ZM9.87,10.71h-.54v-3.23h.54v3.23Z"/>
</svg>
