<?xml version="1.0" encoding="UTF-8"?>
<svg id="Layer_1" data-name="Layer 1" xmlns="http://www.w3.org/2000/svg" xmlns:xlink="http://www.w3.org/1999/xlink"
     viewBox="0 0 16 16">
    <defs>
        <style>
            .cls-1 {
            fill: url(#linear-gradient-2);
            }

            .cls-2 {
            fill: #a3a3a3;
            }

            .cls-3 {
            fill: url(#linear-gradient);
            }
        </style>
        <linearGradient id="linear-gradient" x1="5.89" y1="5.65" x2="10.11" y2="5.65" gradientUnits="userSpaceOnUse">
            <stop offset="0" stop-color="#ff4715"/>
            <stop offset="1" stop-color="#f70"/>
        </linearGradient>
        <linearGradient id="linear-gradient-2" x1="3.66" y1="10.19" x2="12.34" y2="10.19"
                        xlink:href="#linear-gradient"/>
    </defs>
    <path class="cls-2"
          d="M12.73,2.75v10.5H3.27V2.75h9.45M13.18,1.58H2.82c-.4,0-.72.32-.72.72v11.4c0,.4.32.72.72.72h10.36c.4,0,.72-.32.72-.72V2.3c0-.4-.32-.72-.72-.72h0Z"/>
    <circle class="cls-3" cx="8" cy="5.65" r="2.11"/>
    <path class="cls-1"
          d="M11.37,12.3c.7,0,1.15-.71.89-1.35-.68-1.68-2.33-2.87-4.26-2.87s-3.63,1.23-4.29,2.96c-.23.61.26,1.27.92,1.27h6.74Z"/>
</svg>
