<?xml version="1.0" encoding="UTF-8"?>
<svg id="Layer_1" data-name="Layer 1" xmlns="http://www.w3.org/2000/svg" xmlns:xlink="http://www.w3.org/1999/xlink"
     viewBox="0 0 16 16">
    <defs>
        <style>
            .cls-1 {
            fill: url(#linear-gradient);
            }

            .cls-2 {
            fill: #a2a2a2;
            }
        </style>
        <linearGradient id="linear-gradient" x1="7.46" y1="12.34" x2="9.52" y2="10.03" gradientUnits="userSpaceOnUse">
            <stop offset="0" stop-color="#ff4715"/>
            <stop offset="1" stop-color="#f70"/>
        </linearGradient>
    </defs>
    <path class="cls-2"
          d="M8.65,7.97c.6-1.05,1.5-1.59,2.16-1.87-.53-.31-1.13-.49-1.79-.49-1.99,0-3.61,1.62-3.61,3.6,0,.14.03.27.04.41.71-.11,2.53-.49,3.19-1.65Z"/>
    <path class="cls-1"
          d="M11.47,6.8c-.45.13-1.52.53-2.14,1.62-.78,1.38-2.71,1.82-3.54,1.95.47,1.35,1.74,2.32,3.24,2.32,1.9,0,3.45-1.55,3.45-3.45,0-.95-.39-1.81-1.01-2.44Z"/>
    <path class="cls-2"
          d="M4.27,9.68s.36.05,1.2-.06,2.15-1.62,2.15-1.62l1.52-1.57,1.68-.33s1.19-.32,1.24-.6l-2.4-1.04-2.78.47-2.15,2.19-.45,2.55Z"/>
    <path class="cls-2"
          d="M2.18,6.4c-.23,0-.44-.14-.52-.36-.11-.29.04-.61.33-.71L12.42,1.48c.29-.11.61.04.71.33.11.29-.04.61-.33.71L2.38,6.36c-.06.02-.13.03-.19.03Z"/>
    <path class="cls-2"
          d="M9.03,14.55c-2.94,0-5.34-2.4-5.34-5.34s2.4-5.34,5.34-5.34,5.34,2.4,5.34,5.34-2.4,5.34-5.34,5.34ZM9.03,4.98c-2.33,0-4.23,1.9-4.23,4.23s1.9,4.23,4.23,4.23,4.23-1.9,4.23-4.23-1.9-4.23-4.23-4.23Z"/>
</svg>
