<?xml version="1.0" encoding="UTF-8"?>
<svg id="Layer_1" data-name="Layer 1" xmlns="http://www.w3.org/2000/svg" xmlns:xlink="http://www.w3.org/1999/xlink"
     viewBox="0 0 16 16">
    <defs>
        <style>
            .cls-1 {
            fill: url(#linear-gradient-2);
            }

            .cls-2 {
            fill: none;
            stroke: #e94300;
            stroke-dasharray: 5 3 5 3 5 3;
            stroke-linejoin: round;
            }

            .cls-3 {
            fill: url(#linear-gradient);
            }

            .cls-4 {
            fill: #a2a2a2;
            }
        </style>
        <linearGradient id="linear-gradient" x1="4.61" y1="8.07" x2="7.77" y2="4.92" gradientUnits="userSpaceOnUse">
            <stop offset="0" stop-color="#ff8e06"/>
            <stop offset="1" stop-color="#ffcb69"/>
        </linearGradient>
        <linearGradient id="linear-gradient-2" x1="3.58" y1="14.9" x2="8.81" y2="9.67" xlink:href="#linear-gradient"/>
    </defs>
    <circle class="cls-4" cx="10.78" cy="7.28" r="1.76"/>
    <path class="cls-4"
          d="M13.59,12.83c.58,0,.96-.59.74-1.13-.57-1.4-1.94-2.39-3.55-2.39s-3.03,1.02-3.57,2.46c-.19.51.22,1.06.77,1.06h5.61Z"/>
    <circle class="cls-3" cx="6.19" cy="6.49" r="2.23"/>
    <path class="cls-1"
          d="M9.76,13.53c.74,0,1.22-.75.94-1.43-.72-1.78-2.46-3.04-4.5-3.04s-3.84,1.3-4.53,3.13c-.25.65.28,1.34.97,1.34h7.12Z"/>
    <circle class="cls-2" cx="6.07" cy="6.54" r="4.07" transform="translate(-2.03 2.81) rotate(-22.38)"/>
</svg>
