<?xml version="1.0" encoding="UTF-8"?>
<svg id="Layer_1" data-name="Layer 1" xmlns="http://www.w3.org/2000/svg" xmlns:xlink="http://www.w3.org/1999/xlink"
     viewBox="0 0 16 16">
    <defs>
        <style>
            .cls-1 {
            fill: url(#linear-gradient-2);
            }

            .cls-2 {
            fill: url(#linear-gradient);
            }

            .cls-3 {
            fill: #a2a2a2;
            }
        </style>
        <linearGradient id="linear-gradient" x1="5.31" y1="5.78" x2="7.37" y2="5.78" gradientUnits="userSpaceOnUse">
            <stop offset="0" stop-color="#ff4715"/>
            <stop offset="1" stop-color="#f70"/>
        </linearGradient>
        <linearGradient id="linear-gradient-2" x1="4.49" y1="7.89" x2="11.51" y2="7.89" xlink:href="#linear-gradient"/>
    </defs>
    <path class="cls-3" d="M9.1,12.66c0,.61-.49,1.1-1.1,1.1s-1.1-.49-1.1-1.1c0-.3.56-.18,1.1-.18.56,0,1.1-.13,1.1.18Z"/>
    <circle class="cls-3" cx="4.16" cy="12.66" r="1.1"/>
    <circle class="cls-3" cx="11.84" cy="12.66" r="1.1"/>
    <path class="cls-3"
          d="M8,3.51c2.41,0,4.37,1.95,4.37,4.37s-1.95,4.37-4.37,4.37-4.37-1.95-4.37-4.37,1.95-4.37,4.37-4.37M8,2.71c-2.85,0-5.17,2.32-5.17,5.17s2.32,5.17,5.17,5.17,5.17-2.32,5.17-5.17-2.32-5.17-5.17-5.17h0Z"/>
    <path class="cls-2" d="M7.37,7.12v-2.69c-.83.15-1.54.59-2.06,1.21l2.06,1.47Z"/>
    <path class="cls-1"
          d="M8.15,4.39v4.24l-3.26-2.34c-.24.48-.39,1.01-.39,1.58,0,1.94,1.57,3.51,3.51,3.51s3.51-1.57,3.51-3.51-1.49-3.41-3.36-3.49Z"/>
    <path class="cls-3"
          d="M12.11,2.24c-.58,0-1.11.22-1.51.58,1.4.7,2.47,1.96,2.91,3.49.53-.42.88-1.06.88-1.79,0-1.26-1.02-2.28-2.28-2.28h0Z"/>
    <path class="cls-3"
          d="M3.89,2.24c-1.26,0-2.28,1.02-2.28,2.28,0,.73.35,1.37.88,1.79.44-1.53,1.51-2.79,2.91-3.49-.4-.36-.93-.58-1.51-.58h0Z"/>
</svg>
